<svg width="26" height="26" viewBox="0 0 26 26" fill="none" xmlns="http://www.w3.org/2000/svg">
<path d="M13.0002 0.199951C5.9314 0.199951 0.200195 5.93115 0.200195 13C0.200195 20.0688 5.9314 25.8 13.0002 25.8C20.069 25.8 25.8002 20.0688 25.8002 13C25.8002 5.93115 20.069 0.199951 13.0002 0.199951ZM8.19593 5.96315C9.09406 5.96315 9.69246 6.56155 9.69246 7.35942C9.69246 8.15728 9.09406 8.75568 8.09673 8.75568C7.1986 8.75675 6.6002 8.15728 6.6002 7.35942C6.6002 6.56155 7.1986 5.96315 8.19593 5.96315ZM9.8002 18.3333H6.6002V9.79995H9.8002V18.3333ZM20.4669 18.3333H17.4546V13.6698C17.4546 12.3802 16.6514 12.0826 16.3506 12.0826C16.0498 12.0826 15.045 12.281 15.045 13.6698C15.045 13.8682 15.045 18.3333 15.045 18.3333H11.9335V9.79995H15.0461V10.9904C15.4471 10.296 16.2503 9.79995 17.7565 9.79995C19.2626 9.79995 20.4669 10.9904 20.4669 13.6698V18.3333Z" fill="url(#paint0_linear)"/>
<defs>
<linearGradient id="paint0_linear" x1="20.5735" y1="0.199952" x2="4.69033" y2="18.6438" gradientUnits="userSpaceOnUse">
<stop stop-color="#BF99FF"/>
<stop offset="1" stop-color="#7137FF"/>
</linearGradient>
</defs>
</svg>
