<svg width="129" height="48" viewBox="0 0 129 48" fill="none" xmlns="http://www.w3.org/2000/svg">
<g clip-path="url(#clip0)">
<mask id="mask0" mask-type="alpha" maskUnits="userSpaceOnUse" x="5" y="4" width="39" height="40">
<path d="M28.0814 7.8015C28.7469 6.19481 30.5889 5.43183 32.1956 6.09734C33.8023 6.76286 34.5652 8.60484 33.8997 10.2115L21.4788 40.1983C20.8133 41.805 18.9713 42.568 17.3646 41.9025C15.7579 41.237 14.9949 39.395 15.6604 37.7883L28.0814 7.8015Z" fill="#A169FF"/>
<path d="M36.646 13.7087C37.1579 12.4728 38.5748 11.8858 39.8107 12.3978C41.0467 12.9097 41.6336 14.3266 41.1216 15.5625L30.3692 41.5213C29.8572 42.7572 28.4403 43.3441 27.2044 42.8321C25.9685 42.3202 25.3816 40.9033 25.8935 39.6674L36.646 13.7087Z" fill="#A169FF"/>
<path d="M19.191 6.47856C19.7029 5.24265 21.1198 4.65575 22.3557 5.16768C23.5917 5.67961 24.1786 7.09652 23.6666 8.33244L12.9142 34.2912C12.4022 35.5271 10.9853 36.114 9.74941 35.602C8.5135 35.0901 7.92659 33.6732 8.43853 32.4373L19.191 6.47856Z" fill="#A169FF"/>
<path d="M40.4846 27.2277C40.8685 26.3008 41.9312 25.8606 42.8582 26.2446C43.7851 26.6285 44.2253 27.6912 43.8413 28.6181L41.524 34.2127C41.14 35.1396 40.0773 35.5798 39.1504 35.1958C38.2235 34.8119 37.7833 33.7492 38.1672 32.8223L40.4846 27.2277Z" fill="#A169FF"/>
<path d="M8.03618 13.7871C8.42013 12.8602 9.48281 12.42 10.4097 12.804C11.3367 13.1879 11.7769 14.2506 11.3929 15.1776L9.07557 20.7721C8.69162 21.699 7.62894 22.1392 6.702 21.7553C5.77507 21.3713 5.33489 20.3086 5.71884 19.3817L8.03618 13.7871Z" fill="#A169FF"/>
</mask>
<g mask="url(#mask0)">
<rect x="5.40234" y="4.62231" width="38.7552" height="38.7552" fill="url(#paint0_linear)"/>
</g>
<path d="M63.2646 14.5153C57.8348 14.5153 53.6953 18.6817 53.6953 24.1652C53.6953 29.6756 57.8348 33.8689 63.2646 33.8689C68.6944 33.8689 72.807 29.6756 72.807 24.1652C72.807 18.6817 68.6944 14.5153 63.2646 14.5153ZM63.2646 17.5796C66.8396 17.5796 69.5814 20.4289 69.5814 24.1652C69.5814 27.9284 66.8396 30.8046 63.2646 30.8046C59.6627 30.8046 56.9478 27.9284 56.9478 24.1652C56.9478 20.4289 59.6627 17.5796 63.2646 17.5796Z" fill="#2A2537"/>
<path d="M81.8929 20.187C80.1457 20.187 78.7479 21.0471 77.9146 22.5255V20.4558H74.9309V33.6001H77.9146V26.4769C77.9146 24.4071 79.2049 23.0631 81.1671 23.0631C83.0756 23.0631 84.3389 24.4071 84.3389 26.4769V33.6001H87.3495V26.1006C87.3495 22.4449 85.2529 20.187 81.8929 20.187Z" fill="#2A2537"/>
<path d="M96.0882 33.8689C99.2869 33.8689 102.056 31.7722 102.405 28.7886H99.3407C99.0181 30.1057 97.6473 30.9927 96.0882 30.9927C93.9109 30.9927 92.2444 29.2724 92.2444 27.0414C92.2444 24.7834 93.9109 23.0631 96.0882 23.0631C97.6473 23.0631 98.9913 23.9502 99.3138 25.1598H102.378C101.975 22.3105 99.2601 20.187 96.0882 20.187C92.2444 20.187 89.2876 23.1438 89.2876 27.0414C89.2876 30.939 92.2444 33.8689 96.0882 33.8689Z" fill="#2A2537"/>
<path d="M105.864 14.354C104.815 14.354 103.955 15.241 103.955 16.2625C103.955 17.3377 104.815 18.1978 105.864 18.1978C106.912 18.1978 107.799 17.3377 107.799 16.2625C107.799 15.241 106.912 14.354 105.864 14.354ZM104.358 20.4558V33.6001H107.342V20.4558H104.358Z" fill="#2A2537"/>
<path d="M122.489 26.7457C122.489 22.9018 119.613 20.187 116.065 20.187C112.275 20.187 109.291 23.1438 109.291 26.9607C109.291 30.8852 112.275 33.8689 116.119 33.8689C119.344 33.8689 121.844 32.041 122.328 29.2724H119.317C119.049 30.4014 117.785 31.154 116.172 31.154C113.941 31.154 112.57 29.8369 112.275 27.7402H122.409C122.462 27.4714 122.489 27.0951 122.489 26.7457ZM112.382 25.4554C112.839 23.762 114.13 22.6599 115.904 22.6599C117.705 22.6599 119.049 23.8158 119.237 25.4554H112.382Z" fill="#2A2537"/>
</g>
<defs>
<linearGradient id="paint0_linear" x1="36.245" y1="4.62231" x2="12.1998" y2="32.544" gradientUnits="userSpaceOnUse">
<stop stop-color="#BF99FF"/>
<stop offset="1" stop-color="#7137FF"/>
</linearGradient>
<clipPath id="clip0">
<path d="M0.780273 0H128.22V48H0.780273V0Z" fill="white"/>
</clipPath>
</defs>
</svg>
