<svg width="26" height="26" viewBox="0 0 26 26" fill="none" xmlns="http://www.w3.org/2000/svg">
<path d="M13.0002 0.199951C5.9314 0.199951 0.200195 5.93115 0.200195 13C0.200195 20.0688 5.9314 25.8 13.0002 25.8C20.069 25.8 25.8002 20.0688 25.8002 13C25.8002 5.93115 20.069 0.199951 13.0002 0.199951ZM8.73353 6.59162H14.6002C17.2509 6.59162 19.4002 8.74095 19.4002 11.3916C19.4002 14.0423 17.2509 16.1916 14.6002 16.1916H11.4002V19.4H8.73353V6.59995V6.59162ZM11.4002 9.25829V13.525H14.6002C15.7767 13.525 16.7335 12.5682 16.7335 11.3916C16.7335 10.2151 15.7767 9.25829 14.6002 9.25829H11.4002Z" fill="url(#paint0_linear)"/>
<defs>
<linearGradient id="paint0_linear" x1="20.5735" y1="0.199952" x2="4.69033" y2="18.6438" gradientUnits="userSpaceOnUse">
<stop stop-color="#BF99FF"/>
<stop offset="1" stop-color="#7137FF"/>
</linearGradient>
</defs>
</svg>
