<svg width="26" height="26" viewBox="0 0 26 26" fill="none" xmlns="http://www.w3.org/2000/svg">
<path d="M13.0002 0.199951C5.9314 0.199951 0.200195 5.93115 0.200195 13C0.200195 20.0688 5.9314 25.8 13.0002 25.8C20.069 25.8 25.8002 20.0688 25.8002 13C25.8002 5.93115 20.069 0.199951 13.0002 0.199951ZM19.8951 10.3706C19.9015 10.5125 19.9047 10.6533 19.9047 10.7941C19.9047 15.1333 16.6034 20.1338 10.565 20.1338C8.71006 20.1338 6.98526 19.5909 5.53353 18.6586C5.7906 18.6896 6.05193 18.7034 6.31753 18.7034C7.85673 18.7034 9.27113 18.1797 10.3933 17.2976C8.95646 17.2709 7.74366 16.3216 7.3266 15.0181C7.52713 15.0565 7.733 15.0768 7.9442 15.0768C8.24393 15.0768 8.53513 15.0362 8.80926 14.9616C7.3074 14.6608 6.17566 13.3338 6.17566 11.7434C6.17566 11.7296 6.17566 11.7157 6.17566 11.7018C6.61833 11.9482 7.12393 12.0954 7.6626 12.1125C6.7826 11.5248 6.20233 10.5189 6.20233 9.38075C6.20233 8.77809 6.3634 8.21382 6.64606 7.73062C8.26526 9.71675 10.6845 11.0245 13.4119 11.161C13.3565 10.921 13.3277 10.6704 13.3277 10.4133C13.3277 8.60102 14.7975 7.13008 16.6098 7.13008C17.5538 7.13008 18.4071 7.52902 19.0055 8.16688C19.7533 8.01862 20.4562 7.74662 21.0909 7.37009C20.8455 8.13702 20.325 8.77915 19.6466 9.18662C20.3101 9.10769 20.9426 8.93168 21.5325 8.67035C21.0941 9.32955 20.5383 9.90662 19.8951 10.3706Z" fill="url(#paint0_linear)"/>
<defs>
<linearGradient id="paint0_linear" x1="20.5735" y1="0.199952" x2="4.69033" y2="18.6438" gradientUnits="userSpaceOnUse">
<stop stop-color="#BF99FF"/>
<stop offset="1" stop-color="#7137FF"/>
</linearGradient>
</defs>
</svg>
